<svg xmlns="http://www.w3.org/2000/svg" width="25" height="21" fill="none"><path fill="#fff" d="M1.125.5a1 1 0 0 0 0 2h2.22L5.969 13c.223.89 1.02 1.5 1.937 1.5h12.47c.903 0 1.67-.6 1.907-1.47l2.592-9.53h-2.094l-2.406 9H7.905L5.282 2A1.984 1.984 0 0 0 3.345.5zm18 14c-1.645 0-3 1.355-3 3s1.355 3 3 3 3-1.355 3-3-1.355-3-3-3m-9 0c-1.645 0-3 1.355-3 3s1.355 3 3 3 3-1.355 3-3-1.355-3-3-3m3-14v5h-3l4 4 4-4h-3v-5zm-3 16c.564 0 1 .436 1 1s-.436 1-1 1-1-.436-1-1 .436-1 1-1m9 0c.564 0 1 .436 1 1s-.436 1-1 1-1-.436-1-1 .436-1 1-1"/></svg>