<svg xmlns="http://www.w3.org/2000/svg" width="20" height="27" fill="none"><path fill="#fff" d="m5.179.805-1.147.346A5.6 5.6 0 0 0 .105 5.717c-.475 3.31.588 7.178 3.15 11.615 2.554 4.426 5.367 7.277 8.463 8.525a5.6 5.6 0 0 0 5.944-1.128l.867-.823a3.2 3.2 0 0 0 .396-4.196l-2.17-3.009a2.4 2.4 0 0 0-2.648-.89l-3.282 1.004-.084.016c-.362.053-1.197-.73-2.237-2.531-1.088-1.885-1.312-2.987-1.013-3.272L9.16 9.47a4 4 0 0 0 .92-4.56L9.02 2.557A3.2 3.2 0 0 0 5.18.805m2.386 2.408L8.62 5.567a2.4 2.4 0 0 1-.55 2.736L6.396 9.861c-1.072 1.015-.717 2.746.723 5.239 1.353 2.345 2.589 3.504 3.917 3.302l.198-.041 3.34-1.02a.8.8 0 0 1 .884.296l2.17 3.008a1.6 1.6 0 0 1-.197 2.1l-.869.822a4 4 0 0 1-4.245.805c-2.717-1.094-5.285-3.698-7.677-7.84C2.243 12.38 1.271 8.849 1.69 5.945a4 4 0 0 1 2.805-3.263l1.147-.345a1.6 1.6 0 0 1 1.92.876"/></svg>