<svg xmlns="http://www.w3.org/2000/svg" width="24" height="31" fill="none"><path fill="#fff" d="M15.02 1.67c0 4.726 2.492 7.102 4.638 9.36 2.054 2.16 4.008 4.218 4.008 8.137 0 6.416-5.004 11-11.42 11S.333 25.605.333 19.167c0-2.72 1.283-5.348 3.345-6.532.407-.234.896.009 1.071.445 1.335 3.332 2.98 3.273 3.833 2.42.518-.516.627-1.488-.005-2.75C5.37 6.336 11.061 1.713 14.177.946c.448-.11.82.264.843.724m-2.774 26.497c5.412 0 9.42-3.787 9.42-9 0-3.116-1.457-4.652-3.57-6.878l-.028-.03c-1.92-2.023-4.186-4.468-4.866-8.743a8.2 8.2 0 0 0-2.548 2.347c-1.049 1.525-1.529 3.51-.288 5.993.804 1.607 1.036 3.653-.369 5.059-.876.876-2.35 1.466-3.941.78-1.003-.431-1.804-1.272-2.451-2.386-.756.942-1.272 2.32-1.272 3.858 0 5.129 4.384 9 9.913 9"/></svg>